<?xml version="1.0" encoding="utf-8"?>
<!-- Generator: Adobe Illustrator 26.0.3, SVG Export Plug-In . SVG Version: 6.00 Build 0)  -->
<svg version="1.1" id="レイヤー_1" xmlns="http://www.w3.org/2000/svg" xmlns:xlink="http://www.w3.org/1999/xlink" x="0px"
	 y="0px" viewBox="0 0 69.5 162.6" style="enable-background:new 0 0 69.5 162.6;" xml:space="preserve">
<style type="text/css">
	.st0{fill:url(#SVGID_1_);}
</style>
<g id="レイヤー_2_00000002362149618353967150000002768964946529256592_">
	<g>
		<g id="レイヤー_1-2_00000076595587061168255470000013721842410086457023_">
			
				<linearGradient id="SVGID_1_" gradientUnits="userSpaceOnUse" x1="34.9332" y1="848.484" x2="34.9332" y2="677.306" gradientTransform="matrix(1 0 0 1 0 -680)">
				<stop  offset="0.1784" style="stop-color:#C88C06"/>
				<stop  offset="0.41" style="stop-color:#E9C77E"/>
				<stop  offset="0.73" style="stop-color:#C78A03"/>
				<stop  offset="0.887" style="stop-color:#E3B75E"/>
				<stop  offset="0.949" style="stop-color:#EFCA84"/>
			</linearGradient>
			<path class="st0" d="M69.4,152.9c-0.5-0.1-1-0.2-1.5-0.4c-0.1-0.2-0.3-0.4-0.6-0.4l0,0c-1.2-0.1-1.3-1-1.4-2.5
				c0-0.7-0.1-1.3-0.4-1.9c-0.1-0.2-0.3-0.4-0.6-0.5c-1.9-13.7-12.4-16.6-14.8-22.4c-0.6,4.5,1.9,12.1,4.9,17c2.5,4.2,6.5,4.7,9,6.8
				c0,0.1,0.1,0.2,0.1,0.3l0,0l0,0c0.1,0.3,0.1,0.6,0.1,0.9c0,0.1,0,0.2,0,0.4c-1.1-0.9-2.5-1.7-5.4-1.4l-2.5,0.2
				c-3.4,0.3-3.5,0.3-5.4-1.8c0-0.5,0-0.9,0-1.4c0.1-0.7,0-1.3-0.1-2c-0.1-0.2-0.2-0.4-0.4-0.5c0.8-13.5-8.5-20.1-9.6-26.6
				c-1.5,4-0.7,12.3,1.1,18.1c1.6,4.9,5.3,6.9,7.3,9.9c0,0.3,0,0.6,0,0.8c-2.3-1.8-4.8-3.4-7.4-4.8c-0.6-0.3-1.2-0.7-1.7-1
				c-0.1-0.1-0.2-0.2-0.3-0.2s-0.1-0.1-0.2-0.1c-0.7-0.4-1.3-0.8-1.8-1.1c-0.6-0.9-0.9-2-0.7-3.1c4.2-12.9-3.7-23-3.4-29.6
				c-2.3,3.3-3.3,11.5-2.7,17.7c0.4,4.8,3.1,7.9,4.5,11.1l0,0c-3.3-6.3-5.9-8.1-7.6-8.8c0,0-0.1,0-0.1-0.1c-1.6-0.6-1.9-1-2-1.1
				c0-0.2,0.1-0.4,0.1-0.6c0.2-0.7,0.3-1.3,0.3-2c6.8-10.7,1.3-23.3,3-29.5c-3,2.2-5.6,9.7-6.4,15.8c-0.5,4.4,1,8.1,1.8,11.4
				c-0.3,0.3-0.4,0.8-0.3,1.2c-1.5-3.5-3.1-6.9-4.9-10.2c0.2-0.5,0-1.1-0.4-1.4c-0.2-0.2-0.4-0.3-0.6-0.4l-0.4-0.8
				c0-0.3,0.1-0.7,0.2-1c0.2-0.7,0.4-1.4,0.5-2.1c8.6-7.7,6-21.6,8.9-26.9c-3.3,1-7.5,7.1-9.5,12.7c-1.5,4-0.7,8.1-0.7,11.6
				c-0.3,0.3-0.5,0.7-0.4,1l0,0c0,0.6,0,1.3-0.2,1.9c-0.4-1.7-0.8-4.2-1.2-6.3c-0.8-4.4-1.3-7.1-1.9-8.3c-1.1-2-0.8-2.4,0.1-3.8
				c0.2-0.2,0.3-0.5,0.5-0.7C24.6,82.1,25,67.5,29,63.6c-3.4-0.3-8.7,4-11.8,8.5c-2.1,3-2.4,6.9-3,10.2c-0.1,0.1-0.2,0.3-0.3,0.4
				c-0.3,0.8-0.7,1.5-1.1,2.2c0-2.1,0.2-4.6,0.3-6.7c0.3-4.1,0.4-6.4,0-7.6v-0.1c-0.4-2.5-0.1-2.8,1-3.9c0.1-0.1,0.2-0.2,0.3-0.3
				c11,0.7,14.5-13.2,19.2-15.5c-3.2-1.6-9.3,0.5-13.2,3.7c-2.7,2.1-3.8,5.8-5.1,8.7c-0.2,0-0.4,0.1-0.6,0.3
				c-0.4,0.6-0.9,1.1-1.4,1.5c0.5-2,1-4,1.7-6c0.5-1.5,0.9-2.7,1.1-3.7c0.1-0.1,0.1-0.3,0.1-0.5l0,0c0.3-3.1,0.7-5.2,1.5-6.1
				c0.6-0.5,1.4-0.7,2.1-0.4c9.9,3.3,16-7.9,20.9-8.3c-2.8-2.7-9.1-3-13.6-1.5c-3.6,1.2-5.5,5.2-7.7,7.5c-0.5,0-1.1,0-1.6,0.2
				c0.8-1.4,1.6-2.7,2.5-4c1.3-1.8,2.5-3.7,3.3-5.8c0.2-0.5,0.3-1,0.4-1.3c0.6-2.4,0.8-3.1,3-3.2c9.2,8.1,17.8-0.9,22.8,0.6
				c-2.1-3.6-8.1-6.2-12.8-6.5c-3.2-0.2-5.6,2.1-7.9,3.6c-0.9,0-1.7,0-2.4,0.1c0.9-0.8,1.9-1.4,3-2c2-1,3.7-2.4,5.1-4.1
				c6.3,0.5,13.5,0.5,22.1-16.2C51.8,14.1,36,7,33.9,21.7c-1.3,1.6-3,3-4.8,3.9c-1,0.6-1.9,1.2-2.8,1.9c0.1-0.3,0.1-0.6,0.2-0.9
				C31.7,21,34.1,16.8,36,0c-2.6,1-13.8,12.1-11.3,26.2c-0.3,1.3-0.7,2.5-1.1,3.7c-0.5,1.2-0.8,2.4-1,3.6c0,0.2,0,0.3,0,0.5
				c0,0.1-0.1,0.2-0.1,0.3c-0.1,0.4-0.2,0.8-0.3,1.2c-0.8,1.8-1.8,3.6-3,5.2c-0.8,1.1-1.5,2.2-2.2,3.3c0-0.2,0-0.4,0-0.6
				c4-7.5,5.4-12.4,3.7-29.6c-2.3,1.9-10.4,16.5-5.4,29.2c0,1.1-0.1,2.1-0.4,3.1c-0.5,1.5-0.5,3.1,0.1,4.6c-0.2,1.1-0.4,2.2-0.5,3.4
				c0,0.1,0,0.1,0,0.2l0,0c-0.3,1.3-0.6,2.6-1.1,3.9c-0.5,1.6-1.1,3.5-1.5,5.3c0-0.2-0.1-0.3-0.2-0.5c2.2-8.8,2.6-14-2.7-30
				c-1.7,2.6-6.3,19.3,0.7,29.7c0,0.3,0.1,0.6,0.3,0.8c0.6,0.8,0.7,2,0.7,3.4c-0.1,1.5,0.2,3.1,1,4.5c0,0.1,0,0.2,0.1,0.4l0,0
				c0,0.1,0.1,0.2,0.1,0.3c0.1,2.1,0,4.2-0.2,6.3c-0.2,2.7-0.3,5.1-0.3,7.1c-0.1-0.3-0.2-0.5-0.4-0.8c0.3-9.8-0.3-14.9-8.9-28.7
				c-1.2,3-2,20,6.1,27.7c-0.1,0.5,0.1,1,0.5,1.3c0.8,0.5,1.1,1.6,1.5,2.9c0.4,1.4,0.9,2.9,2.1,3.8c0.1,0.1,0.1,0.2,0.2,0.3
				c0.5,0.9,1.1,4.5,1.6,7.5c0.4,2.1,0.7,3.9,1,5.3c-0.2-0.2-0.4-0.5-0.6-0.7c-1.7-9-3.6-13.8-14.4-23.6C-0.3,84,2.8,101.8,13,105.4
				c0.7,0.4,1.3,1,1.7,1.8c0.5,0.9,1.2,1.6,2,2.1c0.2,0.3,0.4,0.6,0.6,0.9c2.4,4.2,5.5,10.3,6.4,13.5l0,0c-0.4-0.7-0.9-1.5-1.6-1.6
				c-3.5-7.8-6.4-11.7-18.6-17c0.4,3.5,6.8,18.9,16.8,19.3c0,0,0,0.1,0.1,0.1c0.2,0.3,0.6,0.4,1,0.2c0.1-0.1,0.2-0.1,0.2-0.2l0,0
				c0-0.1,0.1-0.1,0.2-0.2l0,0c0.3,0.3,0.5,0.6,0.6,0.9c0.5,0.8,1.4,2.2,2.7,1.7c0.4,0.3,0.9,0.4,1.4,0.5c1.7,0.4,4.4,1,8.7,9.8
				c-0.5,0.1-0.9,0.2-1.4,0.4c-5.2-6.7-8.6-9.5-21.8-10.1c1.1,3.3,10.6,15.9,20.3,12.2c0,0,0,0.1,0.1,0.1l0,0c0.5,0.4,1,0.2,1.7,0
				c1.2-0.4,2.2-0.7,3,0.3l0,0c0.1,0.1,0.3,0.2,0.5,0.3c0.5,0.4,1,0.7,1.6,0.9c0.6,0.4,1.3,0.8,2.2,1.3c2.5,1.3,4.9,2.8,7.1,4.5
				c-0.3,0.1-0.6,0.3-0.8,0.4c0,0,0,0-0.1,0c-6.4-4.5-10.2-5.9-22.8-1.5c1.8,2.8,13.9,11.7,22.4,3.7c0.2,0.1,0.4,0.2,0.6,0.1
				c0.2-0.1,0.3-0.2,0.5-0.2c0.9-0.5,1.5-0.7,1.7-0.5c0.4,0.7,1,1.2,1.8,1.4c0.1,0,0.1,0,0.2,0c1.1,0.7,2.1,0.7,4.7,0.4l2.4-0.2
				c2.3-0.2,3.3,0.3,4.3,1l-0.3,0.3c-7-1.9-10.9-1.8-22,7.1c2.3,2,15.6,6,22.1-4.7c0.1,0,0.2-0.1,0.3-0.1c0.2-0.1,0.3-0.2,0.4-0.4
				c0.4-0.4,0.8-0.6,1.3-0.9c0.2,0.2,0.4,0.3,0.7,0.5c-1.3,0.9-2.7,3.2-4.2,7.1c-0.2,0.5-0.1,1.1,0.4,1.5c0.3,0.2,0.8,0.1,1-0.2
				c0-0.1,0.1-0.2,0.1-0.2c2.2-5.7,3.5-6.3,3.9-6.3c0.9-0.1,1.8-0.3,2.7-0.5L69.4,152.9z"/>
		</g>
	</g>
</g>
</svg>
