<?xml version="1.0" encoding="utf-8"?>
<!-- Generator: Adobe Illustrator 26.1.0, SVG Export Plug-In . SVG Version: 6.00 Build 0)  -->
<svg version="1.1" id="レイヤー_1" xmlns="http://www.w3.org/2000/svg" xmlns:xlink="http://www.w3.org/1999/xlink" x="0px"
	 y="0px" viewBox="0 0 728.4 341.8" style="enable-background:new 0 0 728.4 341.8;" xml:space="preserve">
<style type="text/css">
	.st0{fill:#518CC7;stroke:#0B69B7;stroke-miterlimit:10;}
	.st1{fill:none;stroke:#000000;stroke-miterlimit:10;}
	.st2{fill:#8B9FAB;stroke:#54798C;stroke-miterlimit:10;}
	.st3{font-weight: bold;}
	.st4{font-size:17.1679px;glyph-orientation-vertical:0;writing-mode:tb;}
	.st5{font-size:11.2538px;}
	.st6{letter-spacing:1;}
	.st7{enable-background:new    ;}
	.st8{font-family:'Arial-BoldMT';}
	.st9{font-size:17.1679px;}
	.st10{fill:#FFFFFF;}
	.st11{font-size:17.0079px;}
</style>
<path class="st0" d="M0.4,0h194.7v50.2H0.4V0z"/>
<path class="st1" d="M0.5,56.3h59.7v136.4H0.5V56.3z M67.4,56.3h59.7v136.4H67.4V56.3z M134.5,56.3h59.7v136.4h-59.7V56.3z"/>
<path class="st2" d="M200.7,0h194.7v50.2H200.7V0z"/>
<path class="st0" d="M401,0h127.1v50.2H401V0z"/>
<path class="st2" d="M533.6,0h194.7v50.2H533.6V0z"/>
<text transform="matrix(1 0 0 1 40.4286 67.886)" class="st3 st4">大学受験生</text>
<text transform="matrix(1 0 0 1 19.1286 67.886)" class="st3 st4">高３生</text>
<text transform="matrix(1 0 0 1 97.2626 67.886)" class="st3 st4">高２生</text>
<text transform="matrix(1 0 0 1 164.3976 67.886)" class="st3 st4">高１生</text>
<path class="st1" d="M534.2,56.3h59.7v136.4h-59.7V56.3z M601,56.3h59.7v136.4H601V56.3z M668.2,56.3h59.7v136.4h-59.7V56.3z"/>
<text transform="matrix(1 0 0 1 564.1276 67.886)" class="st3 st4">英検</text>
<path class="st1" d="M201.6,56.3h59.7v136.4h-59.7L201.6,56.3L201.6,56.3z M268.4,56.3h59.7v136.4h-59.7V56.3z M335.6,56.3h59.7
	v136.4h-59.7V56.3z"/>
<text transform="matrix(1 0 0 1 242.5066 67.886)" class="st3 st4">中３生</text>
<text transform="matrix(1 0 0 1 221.2066 67.886)" class="st3 st4">高校受驗生</text>
<text transform="matrix(1 0 0 1 298.3406 67.886)" class="st3 st4">中２生</text>
<text transform="matrix(1 0 0 1 365.4756 67.886)" class="st3 st4">中１生</text>
<path class="st1" d="M400.6,56.3h59.7v136.4h-59.7V56.3z M467.4,56.3h59.7v136.4h-59.7L467.4,56.3L467.4,56.3z"/>
<text transform="matrix(1 0 0 1 508.0656 67.886)" class="st3 st4">小</text>
<text transform="matrix(1 0 0 1 508.0656 145.386)" class="st3 st4">生</text>
<text transform="matrix(1 0 0 1 486.7656 109.5856)" class="st3 st4">英会話</text>
<text transform="matrix(1 0 0 1 430.5106 67.886)" class="st3 st4">小</text>
<text transform="matrix(1 0 0 1 430.5106 146.386)" class="st3 st4">生</text>
<text transform="matrix(6.123234e-17 1 -1 6.123234e-17 50.5625 202.584)" class="st3 st5">英検２</text>
<text transform="matrix(6.123234e-17 1 -1 6.123234e-17 50.5625 239.684)" class="st3 st5 st6">級</text>
<text transform="matrix(6.123234e-17 1 -1 6.123234e-17 50.9141 254.884)" class="st7"><tspan x="0" y="0" class="st8 st5">~</tspan><tspan x="6.6" y="0" class="st3 st5">１級</tspan></text>
<text transform="matrix(6.123234e-17 1 -1 6.123234e-17 37.0146 202.584)" class="st8 st5">IELTS GTEC TEAP</text>
<text transform="matrix(6.123234e-17 1 -1 6.123234e-17 23.0146 202.584)" class="st8 st5">TOEIC,TOEIC Bridge</text>
<text transform="matrix(6.123234e-17 1 -1 6.123234e-17 9.1143 202.584)" class="st8 st5">TOEFL</text>
<text transform="matrix(6.123234e-17 1 -1 6.123234e-17 117.375 202.584)" class="st3 st5">英検２</text>
<text transform="matrix(6.123234e-17 1 -1 6.123234e-17 117.375 239.684)" class="st7"><tspan x="0" y="0" class="st3 st5 st6">級</tspan><tspan x="13.2" y="0" class="st8 st5 st6">~</tspan></text>
<text transform="matrix(6.123234e-17 1 -1 6.123234e-17 117.375 265.484)" class="st3 st5">準１級</text>
<text transform="matrix(6.123234e-17 1 -1 6.123234e-17 103.8242 202.584)" class="st8 st5">IELTS GTEC TEAP</text>
<text transform="matrix(6.123234e-17 1 -1 6.123234e-17 89.8242 202.584)" class="st8 st5">TOEIC,TOEIC Bridge</text>
<text transform="matrix(6.123234e-17 1 -1 6.123234e-17 75.9258 202.584)" class="st8 st5">TOFFI</text>
<text transform="matrix(6.123234e-17 1 -1 6.123234e-17 184.5078 202.584)" class="st7"><tspan x="0" y="0" class="st3 st5">英検</tspan><tspan x="22.5" y="0" class="st8 st5"> </tspan><tspan x="25.6" y="0" class="st3 st5">準２</tspan></text>
<text transform="matrix(6.123234e-17 1 -1 6.123234e-17 184.5078 255.784)" class="st7"><tspan x="0" y="0" class="st3 st5 st6">級</tspan><tspan x="13.2" y="0" class="st8 st5 st6">~</tspan></text>
<text transform="matrix(6.123234e-17 1 -1 6.123234e-17 184.5078 281.584)" class="st3 st5">準１級</text>
<text transform="matrix(6.123234e-17 1 -1 6.123234e-17 170.959 202.584)" class="st8 st5">GTEC TEAP</text>
<text transform="matrix(6.123234e-17 1 -1 6.123234e-17 156.959 202.584)" class="st8 st5">TOEIC Bridge</text>
<text transform="matrix(6.123234e-17 1 -1 6.123234e-17 143.0586 202.584)" class="st8 st5">TOEFL</text>
<text transform="matrix(6.123234e-17 1 -1 6.123234e-17 251.6426 202.584)" class="st7"><tspan x="0" y="0" class="st3 st5">英検</tspan><tspan x="22.5" y="0" class="st8 st5"> </tspan><tspan x="25.6" y="0" class="st3 st5">３</tspan></text>
<text transform="matrix(6.123234e-17 1 -1 6.123234e-17 251.6426 243.384)" class="st3 st5 st6">級</text>
<text transform="matrix(6.123234e-17 1 -1 6.123234e-17 251.9941 258.584)" class="st7"><tspan x="0" y="0" class="st8 st5">~</tspan><tspan x="6.6" y="0" class="st3 st5">２級</tspan></text>
<text transform="matrix(6.123234e-17 1 -1 6.123234e-17 238.0938 202.584)" class="st8 st5">GTEC</text>
<text transform="matrix(6.123234e-17 1 -1 6.123234e-17 224.0938 202.584)" class="st8 st5">TOEIC Bridge</text>
<text transform="matrix(6.123234e-17 1 -1 6.123234e-17 210.1934 202.584)" class="st8 st5">TOEFL</text>
<text transform="matrix(6.123234e-17 1 -1 6.123234e-17 318.4512 202.584)" class="st7"><tspan x="0" y="0" class="st3 st5">英検</tspan><tspan x="22.5" y="0" class="st8 st5"> </tspan></text>
<text transform="matrix(6.123234e-17 1 -1 6.123234e-17 318.8027 230.984)" class="st8 st5 st6">4</text>
<text transform="matrix(6.123234e-17 1 -1 6.123234e-17 318.4512 241.584)" class="st3 st5">級～</text>
<text transform="matrix(6.123234e-17 1 -1 6.123234e-17 318.4512 266.384)" class="st7"><tspan x="0" y="0" class="st3 st5 st6">準</tspan><tspan x="13.2" y="0" class="st8 st5 st6">2</tspan></text>
<text transform="matrix(6.123234e-17 1 -1 6.123234e-17 318.4512 292.084)" class="st3 st5">級</text>
<text transform="matrix(6.123234e-17 1 -1 6.123234e-17 304.9043 202.584)" class="st8 st5">GTEC</text>
<text transform="matrix(6.123234e-17 1 -1 6.123234e-17 385.5859 202.584)" class="st7"><tspan x="0" y="0" class="st3 st5">英検</tspan><tspan x="22.5" y="0" class="st8 st5"> </tspan><tspan x="25.6" y="0" class="st3 st5">導入～</tspan></text>
<text transform="matrix(6.123234e-17 1 -1 6.123234e-17 385.5859 268.184)" class="st7"><tspan x="0" y="0" class="st3 st5 st6">準</tspan><tspan x="13.2" y="0" class="st8 st5 st6">2</tspan></text>
<text transform="matrix(6.123234e-17 1 -1 6.123234e-17 385.5859 293.884)" class="st3 st5">級</text>
<text transform="matrix(6.123234e-17 1 -1 6.123234e-17 372.0371 202.584)" class="st8 st5">GTEC</text>
<text transform="matrix(6.123234e-17 1 -1 6.123234e-17 450.6191 202.584)" class="st7"><tspan x="0" y="0" class="st3 st5">英検</tspan><tspan x="22.5" y="0" class="st8 st5"> </tspan><tspan x="25.6" y="0" class="st3 st5">導入</tspan></text>
<text transform="matrix(6.123234e-17 1 -1 6.123234e-17 450.6191 255.784)" class="st7"><tspan x="0" y="0" class="st3 st5 st6">～</tspan><tspan x="13.2" y="0" class="st8 st5 st6">3</tspan></text>
<text transform="matrix(6.123234e-17 1 -1 6.123234e-17 450.6191 281.584)" class="st3 st5">級</text>
<text transform="matrix(6.123234e-17 1 -1 6.123234e-17 517.4277 202.583)" class="st7"><tspan x="0" y="0" class="st3 st5">英検</tspan><tspan x="22.5" y="0" class="st8 st5"> </tspan><tspan x="25.6" y="0" class="st3 st5">導入～</tspan></text>
<text transform="matrix(6.123234e-17 1 -1 6.123234e-17 517.4277 268.183)" class="st7"><tspan x="0" y="0" class="st3 st5 st6">準</tspan><tspan x="13.2" y="0" class="st8 st5 st6">2</tspan></text>
<text transform="matrix(6.123234e-17 1 -1 6.123234e-17 517.4277 293.883)" class="st3 st5">級</text>
<text transform="matrix(6.123234e-17 1 -1 6.123234e-17 584.2383 202.584)" class="st7"><tspan x="0" y="0" class="st3 st5 st6">準</tspan><tspan x="13.2" y="0" class="st8 st5 st6">2</tspan><tspan x="21.5" y="0" class="st3 st5 st6">級</tspan></text>
<text transform="matrix(6.123234e-17 1 -1 6.123234e-17 584.5898 243.584)" class="st8 st5">~</text>
<text transform="matrix(6.123234e-17 1 -1 6.123234e-17 584.5898 251.284)" class="st8 st5 st6">1</text>
<text transform="matrix(6.123234e-17 1 -1 6.123234e-17 584.2383 261.884)" class="st3 st5">級</text>
<text transform="matrix(6.123234e-17 1 -1 6.123234e-17 624.3457 65.8855)" class="st8 st9">TOEIC</text>
<text transform="matrix(6.123234e-17 1 -1 6.123234e-17 479.6641 67.4699)" class="st8 st9">Kids</text>
<text transform="matrix(6.123234e-17 1 -1 6.123234e-17 502.0312 91.4464)" class="st8 st9">1,2,3</text>
<text transform="matrix(6.123234e-17 1 -1 6.123234e-17 424.5039 92.8542)" class="st8 st9">4,5,6</text>
<text transform="matrix(6.123234e-17 1 -1 6.123234e-17 703.2852 65.8859)" class="st8 st9">TOEFL</text>
<text transform="matrix(6.123234e-17 1 -1 6.123234e-17 682.6836 65.8859)" class="st8 st9">IELTS</text>
<text transform="matrix(6.123234e-17 1 -1 6.123234e-17 651.3984 202.582)" class="st8 st5">TOEIC 500 ~990</text>
<text transform="matrix(6.123234e-17 1 -1 6.123234e-17 718.5352 202.583)" class="st8 st5">TOEFL 40~120</text>
<text transform="matrix(6.123234e-17 1 -1 6.123234e-17 704.6348 202.583)" class="st8 st5">IELTS 4~9</text>
<text transform="matrix(1 0 0 1 29.7186 31.7271)" class="st10 st3 st11">大学受験・高校生</text>
<text transform="matrix(1 0 0 1 272.5384 31.7271)" class="st10 st3 st11">中学生</text>
<text transform="matrix(1 0 0 1 439.0385 31.7271)" class="st10 st3 st11">小学生</text>
<text transform="matrix(1 0 0 1 588.4299 31.7271)" class="st10 st3 st11">高校生以外</text>
</svg>
