<svg xmlns="http://www.w3.org/2000/svg" xml:space="preserve" id="レイヤー_1" x="0" y="0" version="1.1" viewBox="0 0 915.4 304.9"><style>.st0{fill:#518cc7;stroke:#0b69b7;stroke-width:1.2932;stroke-miterlimit:10}.st1{fill:#fff}.st2{font-weight: bold;}.st3{font-size:12px}.st4{fill:none;stroke:#000;stroke-width:.7319;stroke-miterlimit:10}.st5{enable-background:new}.st6{fill:#8b9fab;stroke:#54798c;stroke-width:1.0529;stroke-miterlimit:10}.st10,.st11,.st7,.st8,.st9{fill:none;stroke:#000;stroke-width:.7322;stroke-miterlimit:10}.st10,.st11,.st8,.st9{stroke-width:.7317}.st10,.st11,.st9{fill:#518cc7;stroke:#0b69b7;stroke-width:1.053}.st10,.st11{fill:none;stroke:#000;stroke-width:.7314}.st11{fill:#8b9fab;stroke:#54798c;stroke-width:1.053}</style><path d="M13.5 12H226v50.2H13.5V12z" class="st0"/><text class="st1 st2 st3" transform="translate(100.33 41.707)">小学生</text><path d="M13.3 69.9H84v61.7H13.3z" class="st4"/><text class="st5" transform="translate(21.221 88.522)"><tspan x="0" y="0" class="st2 st3">Kids</tspan><tspan x="0" y="14.4" class="st2 st3">小1,2,3</tspan></text><path d="M13.3 138.3H84V200H13.3z" class="st4"/><text class="st2 st3" transform="translate(21.571 156.86)">小4,5,6</text><text class="st2 st3" transform="translate(93.189 88.522)">英検 導入〜準2</text><text class="st2 st3" transform="translate(92.594 156.86)">英検 導入〜3級</text><text class="st2 st3" transform="translate(245.423 88.522)">中１</text><path d="M238.7 11.6h212.8v50.9H238.7V11.6z" class="st6"/><text class="st1 st2 st3" transform="translate(325.27 41.715)">中学生</text><path d="M238.5 70h70.8v61.6h-70.8zM238.5 138.3h70.8v61.6h-70.8z" class="st7"/><text class="st2 st3" transform="translate(246.143 156.86)">中２</text><text class="st5" transform="translate(318.82 87.872)"><tspan x="0" y="0" class="st2 st3">英検 導入〜準2級</tspan><tspan x="0" y="14.4" class="st2 st3">GTEC</tspan></text><text class="st5" transform="translate(319.468 153.719)"><tspan x="0" y="0" class="st2 st3">英検 4級〜準2級</tspan><tspan x="0" y="14.4" class="st2 st3">GTEC</tspan></text><path d="M238.5 206.6h70.8v61.5h-70.8z" class="st8"/><text class="st5" transform="translate(245.423 224.399)"><tspan x="0" y="0" class="st2 st3">中３</tspan><tspan x="0" y="14.4" class="st2 st3">高校受験</tspan></text><text class="st5" transform="translate(320.116 223.749)"><tspan x="0" y="0" class="st2 st3">英検 3級〜2級</tspan><tspan x="0" y="14.4" class="st2 st3">TOEIC Bridge</tspan><tspan x="0" y="28.8" class="st2 st3">GTEC, TOEFL</tspan></text><path d="M464 11.6h212.9v50.9H464V11.6z" class="st9"/><text class="st1 st2 st3" transform="translate(518.423 41.707)">高校生・大学受験</text><text class="st2 st3" transform="translate(471.29 88.523)">高１</text><text class="st2 st3" transform="translate(472.01 156.86)">高２</text><text class="st5" transform="translate(543.89 87.871)"><tspan x="0" y="0" class="st2 st3">英検 準2級〜準1級</tspan><tspan x="0" y="14.4" class="st2 st3">TOEIC Bridge</tspan><tspan x="0" y="28.8" class="st2 st3">GTEC, TEAP, TOEFL</tspan></text><text class="st5" transform="translate(544.537 153.72)"><tspan x="0" y="0" class="st2 st3">英検 4級〜準2級</tspan><tspan x="0" y="14.4" class="st2 st3">GTEC</tspan></text><path d="M463.8 70h70.8v61.6h-70.8zM463.8 138.3h70.8v61.6h-70.8z" class="st4"/><path d="M463.8 206.6h70.8v61.5h-70.8z" class="st10"/><text class="st5" transform="translate(471.29 224.4)"><tspan x="0" y="0" class="st2 st3">高３</tspan><tspan x="0" y="14.4" class="st2 st3">大学受験</tspan></text><text class="st5" transform="translate(544.237 223.749)"><tspan x="0" y="0" class="st2 st3">英検 3級〜2級</tspan><tspan x="0" y="14.4" class="st2 st3">TOEIC Bridge</tspan><tspan x="0" y="28.8" class="st2 st3">GTEC, TOEFL</tspan></text><path d="M689.3 11.6h212.9v50.9H689.3V11.6z" class="st11"/><text class="st1 st2 st3" transform="translate(762.766 41.666)">高校生 以上</text><text class="st2 st3" transform="translate(696.622 89.022)">英検</text><text class="st2 st3" transform="translate(697.341 157.358)">TOEIC</text><text class="st2 st3" transform="translate(769.22 88.37)">英検 準2級〜1級</text><text class="st2 st3" transform="translate(769.869 157.358)">TOEIC 500〜990</text><path d="M689.1 70.4h70.8V132h-70.8zM689.1 138.8h70.8v61.6h-70.8z" class="st4"/><path d="M689.1 207.1h70.8v61.5h-70.8z" class="st10"/><text class="st5" transform="translate(696.622 224.898)"><tspan x="0" y="0" class="st2 st3">TOEFL</tspan><tspan x="0" y="14.4" class="st2 st3">IELTS</tspan></text><text class="st5" transform="translate(769.57 224.248)"><tspan x="0" y="0" class="st2 st3">TOEFL 40〜120</tspan><tspan x="0" y="14.4" class="st2 st3">IELTS 4〜9</tspan></text></svg>