<?xml version="1.0" encoding="utf-8"?>
<!-- Generator: Adobe Illustrator 26.1.0, SVG Export Plug-In . SVG Version: 6.00 Build 0)  -->
<svg version="1.1" id="レイヤー_1" xmlns="http://www.w3.org/2000/svg" xmlns:xlink="http://www.w3.org/1999/xlink" x="0px"
	 y="0px" viewBox="0 0 729.4 341.8" style="enable-background:new 0 0 729.4 341.8;" xml:space="preserve">
<style type="text/css">
	.st0{fill:#518CC7;stroke:#0B69B7;stroke-miterlimit:10;}
	.st1{fill:none;stroke:#000000;stroke-miterlimit:10;}
	.st2{fill:#8B9FAB;stroke:#54798C;stroke-miterlimit:10;}
	.st3{font-weight: bold;}
	.st4{font-size:17.1679px;glyph-orientation-vertical:0;writing-mode:tb;}
	.st5{font-size:11.2538px;}
	.st6{font-family:'Arial-BoldMT';}
	.st7{font-size:17.1679px;}
	.st8{fill:#FFFFFF;}
	.st9{font-size:17.0079px;}
</style>
<path class="st0" d="M0.4,0h194.7v50.2H0.4V0z"/>
<path class="st1" d="M0.5,56.3h59.7v136.4H0.5V56.3z M67.4,56.3h59.7v136.4H67.4V56.3z M134.5,56.3h59.7v136.4h-59.7V56.3z"/>
<path class="st2" d="M200.7,0h194.7v50.2H200.7V0z"/>
<path class="st0" d="M401,0h127.1v50.2H401V0z"/>
<path class="st2" d="M533.6,0h194.7v50.2H533.6V0z"/>
<text transform="matrix(1 0 0 1 40.4286 67.886)" class="st3 st4">大学受験生</text>
<text transform="matrix(1 0 0 1 19.1286 67.886)" class="st3 st4">高３生</text>
<text transform="matrix(1 0 0 1 97.2626 67.886)" class="st3 st4">高２生</text>
<text transform="matrix(1 0 0 1 164.3976 67.886)" class="st3 st4">高１生</text>
<path class="st1" d="M534.2,56.3h59.7v136.4h-59.7V56.3z M601,56.3h59.7v136.4H601V56.3z M668.2,56.3h59.7v136.4h-59.7V56.3z"/>
<text transform="matrix(1 0 0 1 564.1276 67.886)" class="st3 st4">英検</text>
<path class="st1" d="M201.6,56.3h59.7v136.4h-59.7L201.6,56.3L201.6,56.3z M268.4,56.3h59.7v136.4h-59.7V56.3z M335.6,56.3h59.7
	v136.4h-59.7V56.3z"/>
<text transform="matrix(1 0 0 1 242.5066 67.886)" class="st3 st4">中３生</text>
<text transform="matrix(1 0 0 1 221.2066 67.886)" class="st3 st4">高校受驗生</text>
<text transform="matrix(1 0 0 1 298.3406 67.886)" class="st3 st4">中２生</text>
<text transform="matrix(1 0 0 1 365.4756 67.886)" class="st3 st4">中１生</text>
<path class="st1" d="M400.6,56.3h59.7v136.4h-59.7V56.3z M467.4,56.3h59.7v136.4h-59.7L467.4,56.3L467.4,56.3z"/>
<text transform="matrix(1 0 0 1 508.0656 67.886)" class="st3 st4">小</text>
<text transform="matrix(1 0 0 1 508.0656 135.3854)" class="st3 st4">生</text>
<text transform="matrix(1 0 0 1 486.7656 109.5856)" class="st3 st4">英会話</text>
<text transform="matrix(1 0 0 1 430.5106 67.886)" class="st3 st4">小</text>
<text transform="matrix(1 0 0 1 430.5106 136.3854)" class="st3 st4">生</text>
<text transform="matrix(6.123234e-17 1 -1 6.123234e-17 50.5625 197.5837)" class="st3 st5">英検２</text>
<text transform="matrix(6.123234e-17 1 -1 6.123234e-17 50.5625 235.6837)" class="st3 st5">級</text>
<text transform="matrix(6.123234e-17 1 -1 6.123234e-17 50.9141 250.8838)" class="st6 st5">~</text>
<text transform="matrix(6.123234e-17 1 -1 6.123234e-17 50.8105 257.4838)" class="st3 st5">１級</text>
<text transform="matrix(6.123234e-17 1 -1 6.123234e-17 37.0146 198.5837)" class="st6 st5">IELTS GTEC TEAP</text>
<text transform="matrix(6.123234e-17 1 -1 6.123234e-17 23.0146 198.5837)" class="st6 st5">TOEIC,TOEIC Bridge</text>
<text transform="matrix(6.123234e-17 1 -1 6.123234e-17 9.1143 197.5837)" class="st6 st5">TOEFL</text>
<text transform="matrix(6.123234e-17 1 -1 6.123234e-17 117.375 197.5837)" class="st3 st5">英検２</text>
<text transform="matrix(6.123234e-17 1 -1 6.123234e-17 117.2715 235.6837)" class="st3 st5">級</text>
<text transform="matrix(6.123234e-17 1 -1 6.123234e-17 117.375 248.8838)" class="st6 st5">~</text>
<text transform="matrix(6.123234e-17 1 -1 6.123234e-17 117.375 261.4838)" class="st3 st5">準１級</text>
<text transform="matrix(6.123234e-17 1 -1 6.123234e-17 103.8242 198.5837)" class="st6 st5">IELTS GTEC TEAP</text>
<text transform="matrix(6.123234e-17 1 -1 6.123234e-17 89.8242 198.5837)" class="st6 st5">TOEIC,TOEIC Bridge</text>
<text transform="matrix(6.123234e-17 1 -1 6.123234e-17 75.9258 197.5837)" class="st6 st5">TOFFI</text>
<text transform="matrix(6.123234e-17 1 -1 6.123234e-17 184.4043 198.5837)" class="st3 st5">英検</text>
<text transform="matrix(6.123234e-17 1 -1 6.123234e-17 184.5078 221.0837)" class="st6 st5"> </text>
<text transform="matrix(6.123234e-17 1 -1 6.123234e-17 184.4043 224.1837)" class="st3 st5">準２</text>
<text transform="matrix(6.123234e-17 1 -1 6.123234e-17 184.4043 251.7838)" class="st3 st5">級</text>
<text transform="matrix(6.123234e-17 1 -1 6.123234e-17 184.5078 264.9838)" class="st6 st5">~</text>
<text transform="matrix(6.123234e-17 1 -1 6.123234e-17 184.5078 277.5837)" class="st3 st5">準１級</text>
<text transform="matrix(6.123234e-17 1 -1 6.123234e-17 170.959 198.5837)" class="st6 st5">GTEC TEAP</text>
<text transform="matrix(6.123234e-17 1 -1 6.123234e-17 156.959 198.5837)" class="st6 st5">TOEIC Bridge</text>
<text transform="matrix(6.123234e-17 1 -1 6.123234e-17 143.0586 197.5837)" class="st6 st5">TOEFL</text>
<text transform="matrix(6.123234e-17 1 -1 6.123234e-17 251.5391 197.5837)" class="st3 st5">英検</text>
<text transform="matrix(6.123234e-17 1 -1 6.123234e-17 251.6426 220.0837)" class="st6 st5"> </text>
<text transform="matrix(6.123234e-17 1 -1 6.123234e-17 251.5391 223.1837)" class="st3 st5">３</text>
<text transform="matrix(6.123234e-17 1 -1 6.123234e-17 251.6426 239.3838)" class="st3 st5">級</text>
<text transform="matrix(6.123234e-17 1 -1 6.123234e-17 251.9941 254.5838)" class="st6 st5">~</text>
<text transform="matrix(6.123234e-17 1 -1 6.123234e-17 251.8906 261.1838)" class="st3 st5">２級</text>
<text transform="matrix(6.123234e-17 1 -1 6.123234e-17 238.0938 197.5837)" class="st6 st5">GTEC</text>
<text transform="matrix(6.123234e-17 1 -1 6.123234e-17 224.0938 198.5837)" class="st6 st5">TOEIC Bridge</text>
<text transform="matrix(6.123234e-17 1 -1 6.123234e-17 210.1934 197.5837)" class="st6 st5">TOEFL</text>
<text transform="matrix(6.123234e-17 1 -1 6.123234e-17 318.3477 197.5837)" class="st3 st5">英検</text>
<text transform="matrix(6.123234e-17 1 -1 6.123234e-17 318.4512 220.0837)" class="st6 st5"> </text>
<text transform="matrix(6.123234e-17 1 -1 6.123234e-17 318.8027 225.9837)" class="st6 st5">4</text>
<text transform="matrix(6.123234e-17 1 -1 6.123234e-17 318.4512 237.5837)" class="st3 st5">級～</text>
<text transform="matrix(6.123234e-17 1 -1 6.123234e-17 318.3477 262.3838)" class="st3 st5">準</text>
<text transform="matrix(6.123234e-17 1 -1 6.123234e-17 318.4512 275.5837)" class="st6 st5">2</text>
<text transform="matrix(6.123234e-17 1 -1 6.123234e-17 318.4512 287.0837)" class="st3 st5">級</text>
<text transform="matrix(6.123234e-17 1 -1 6.123234e-17 304.9043 197.5837)" class="st6 st5">GTEC</text>
<text transform="matrix(6.123234e-17 1 -1 6.123234e-17 385.4824 198.5837)" class="st3 st5">英検</text>
<text transform="matrix(6.123234e-17 1 -1 6.123234e-17 385.5859 221.0837)" class="st6 st5"> </text>
<text transform="matrix(6.123234e-17 1 -1 6.123234e-17 385.4824 224.1837)" class="st3 st5">導入～</text>
<text transform="matrix(6.123234e-17 1 -1 6.123234e-17 385.4824 264.1837)" class="st3 st5">準</text>
<text transform="matrix(6.123234e-17 1 -1 6.123234e-17 385.5859 277.3838)" class="st6 st5">2</text>
<text transform="matrix(6.123234e-17 1 -1 6.123234e-17 385.5859 288.8837)" class="st3 st5">級</text>
<text transform="matrix(6.123234e-17 1 -1 6.123234e-17 372.0371 197.5837)" class="st6 st5">GTEC</text>
<text transform="matrix(6.123234e-17 1 -1 6.123234e-17 450.5156 198.5837)" class="st3 st5">英検</text>
<text transform="matrix(6.123234e-17 1 -1 6.123234e-17 450.6191 221.0837)" class="st6 st5"> </text>
<text transform="matrix(6.123234e-17 1 -1 6.123234e-17 450.5156 224.1837)" class="st3 st5">導入</text>
<text transform="matrix(6.123234e-17 1 -1 6.123234e-17 450.5156 251.7838)" class="st3 st5">～</text>
<text transform="matrix(6.123234e-17 1 -1 6.123234e-17 450.6191 264.9838)" class="st6 st5">3</text>
<text transform="matrix(6.123234e-17 1 -1 6.123234e-17 450.6191 277.5837)" class="st3 st5">級</text>
<text transform="matrix(6.123234e-17 1 -1 6.123234e-17 517.3242 198.5827)" class="st3 st5">英検</text>
<text transform="matrix(6.123234e-17 1 -1 6.123234e-17 517.4277 221.0827)" class="st6 st5"> </text>
<text transform="matrix(6.123234e-17 1 -1 6.123234e-17 517.3242 224.1827)" class="st3 st5">導入～</text>
<text transform="matrix(6.123234e-17 1 -1 6.123234e-17 517.3242 264.1827)" class="st3 st5">準</text>
<text transform="matrix(6.123234e-17 1 -1 6.123234e-17 517.4277 277.3828)" class="st6 st5">2</text>
<text transform="matrix(6.123234e-17 1 -1 6.123234e-17 517.4277 288.8827)" class="st3 st5">級</text>
<text transform="matrix(6.123234e-17 1 -1 6.123234e-17 584.1348 197.5837)" class="st3 st5">準</text>
<text transform="matrix(6.123234e-17 1 -1 6.123234e-17 584.2383 210.7837)" class="st6 st5">2</text>
<text transform="matrix(6.123234e-17 1 -1 6.123234e-17 584.1348 219.0837)" class="st3 st5">級</text>
<text transform="matrix(6.123234e-17 1 -1 6.123234e-17 584.5898 239.5837)" class="st6 st5">~</text>
<text transform="matrix(6.123234e-17 1 -1 6.123234e-17 584.5898 247.2838)" class="st6 st5">1</text>
<text transform="matrix(6.123234e-17 1 -1 6.123234e-17 584.2383 257.8838)" class="st3 st5">級</text>
<text transform="matrix(6.123234e-17 1 -1 6.123234e-17 624.3457 65.8855)" class="st6 st7">TOEIC</text>
<text transform="matrix(6.123234e-17 1 -1 6.123234e-17 479.6641 67.4699)" class="st6 st7">Kids</text>
<text transform="matrix(6.123234e-17 1 -1 6.123234e-17 502.0312 91.4464)" class="st6 st7">1,2,3</text>
<text transform="matrix(6.123234e-17 1 -1 6.123234e-17 424.5039 92.8542)" class="st6 st7">4,5,6</text>
<text transform="matrix(6.123234e-17 1 -1 6.123234e-17 703.2852 65.8859)" class="st6 st7">TOEFL</text>
<text transform="matrix(6.123234e-17 1 -1 6.123234e-17 682.6836 65.8859)" class="st6 st7">IELTS</text>
<text transform="matrix(6.123234e-17 1 -1 6.123234e-17 651.3984 198.5818)" class="st6 st5">TOEIC 500 ~990</text>
<text transform="matrix(6.123234e-17 1 -1 6.123234e-17 718.5352 198.5827)" class="st6 st5">TOEFL 40~120</text>
<text transform="matrix(6.123234e-17 1 -1 6.123234e-17 704.6348 198.5827)" class="st6 st5">IELTS 4~9</text>
<text transform="matrix(1 0 0 1 29.7186 31.7271)" class="st8 st3 st9">大学受験・高校生</text>
<text transform="matrix(1 0 0 1 272.5384 31.7271)" class="st8 st3 st9">中学生</text>
<text transform="matrix(1 0 0 1 439.0385 31.7271)" class="st8 st3 st9">小学生</text>
<text transform="matrix(1 0 0 1 588.4299 31.7271)" class="st8 st3 st9">高校生以外</text>
</svg>
