<svg xmlns="http://www.w3.org/2000/svg" xml:space="preserve" id="レイヤー_1" x="0" y="0" version="1.1" viewBox="0 0 728 341.8"><style>.st0,.st1,.st2{fill:#518cc7;stroke:#0b69b7;stroke-miterlimit:10}.st1,.st2{fill:none;stroke:#000}.st2{fill:#8b9fab;stroke:#54798c}.st3{writing-mode:tb}.st4{font-family:&apos;NotoSansCJKjp-Bold-83pv-RKSJ-H&apos;}.st5{font-size:17.1679px;glyph-orientation-vertical:0}.st6{letter-spacing:1}.st7{font-size:17.1679px;glyph-orientation-vertical:0}.st7,.st8{writing-mode:tb}.st8,.st9{font-size:17.1679px;glyph-orientation-vertical:1}.st10{font-size:11.2538px}.st11{letter-spacing:3}.st12{fill:#fff}.st13{font-size:12px}</style><path d="M0 0h194.7v50.2H0z" class="st0"/><path d="M.1 56.3h59.7v136.4H.1zM67 56.3h59.7v136.4H67zM134.1 56.3h59.7v136.4h-59.7z" class="st1"/><path d="M200.3 0H395v50.2H200.3z" class="st2"/><path d="M400.6 0h127.1v50.2H400.6z" class="st0"/><path d="M533.2 0h194.7v50.2H533.2z" class="st2"/><text class="st3" transform="translate(39.988 67.886)"><tspan x="0" y="0" class="st4 st5 st6">大学受験生</tspan><tspan x="-21.3" y="0" class="st4 st5 st6">高３生</tspan></text><text class="st4 st7 st6" transform="translate(96.822 67.886)">高２生</text><text class="st4 st7 st6" transform="translate(163.957 67.886)">高１生</text><path d="M533.8 56.3h59.7v136.4h-59.7zM600.6 56.3h59.7v136.4h-59.7zM667.8 56.3h59.7v136.4h-59.7z" class="st1"/><text class="st4 st7 st6" transform="translate(563.687 67.886)">英検</text><text class="st4 st8 st6" transform="translate(630.496 67.886)">TOEIC</text><text class="st3" transform="translate(706.215 67.886)"><tspan x="0" y="0" class="st4 st9 st6">TOEFL</tspan><tspan x="-21.3" y="0" class="st4 st9 st6">IELTS</tspan></text><path d="M201.2 56.3h59.7v136.4h-59.7zM268 56.3h59.7v136.4H268zM335.2 56.3h59.7v136.4h-59.7z" class="st1"/><text class="st3" transform="translate(242.066 67.886)"><tspan x="0" y="0" class="st4 st5 st6">中３生</tspan><tspan x="-21.3" y="0" class="st4 st5 st6">高校受驗生</tspan></text><text class="st4 st7 st6" transform="translate(297.9 67.886)">中２生</text><text class="st4 st7 st6" transform="translate(365.035 67.886)">中１生</text><path d="M400.2 56.3h59.7v136.4h-59.7zM467 56.3h59.7v136.4H467z" class="st1"/><text class="st3" transform="translate(507.625 67.886)"><tspan x="0" y="0" class="st4 st5 st6">小</tspan><tspan x="0" y="23.2" class="st4 st9 st6">1.2.3</tspan><tspan x="0" y="77.5" class="st4 st5 st6">生</tspan><tspan x="-21.3" y="0" class="st4 st9 st6">Kids</tspan><tspan x="-21.3" y="47.7" class="st4 st5 st6">英会話</tspan></text><text class="st3" transform="translate(430.07 67.886)"><tspan x="0" y="0" class="st4 st5 st6">小</tspan><tspan x="0" y="23.2" class="st4 st9 st6">4.5•6</tspan><tspan x="0" y="78.5" class="st4 st5 st6">生</tspan></text><text transform="rotate(90 -76.055 126.529)"><tspan x="0" y="0" class="st4 st10 st6">英検２</tspan><tspan x="37.1" y="0" class="st4 st10 st11">級</tspan><tspan x="52.3" y="0" class="st4 st10 st6">~１級</tspan><tspan x="0" y="13.9" class="st4 st10 st6">IELTS GTEC TEAP</tspan><tspan x="0" y="27.9" class="st4 st10 st6">TOEIC• TOEIC Bridge</tspan><tspan x="0" y="41.8" class="st4 st10 st6">TOEFL</tspan></text><text transform="rotate(90 -42.65 159.934)"><tspan x="0" y="0" class="st4 st10 st6">英検２</tspan><tspan x="37.1" y="0" class="st4 st10 st11">級~</tspan><tspan x="62.9" y="0" class="st4 st10 st6">準１級</tspan><tspan x="0" y="13.9" class="st4 st10 st6">IELTS GTEC TEAP</tspan><tspan x="0" y="27.9" class="st4 st10 st6">TOEIC•TOEIC Bridge</tspan><tspan x="0" y="41.8" class="st4 st10 st6">TOFFI</tspan></text><text transform="rotate(90 -9.083 193.501)"><tspan x="0" y="0" class="st4 st10 st6">英検 準２</tspan><tspan x="53.2" y="0" class="st4 st10 st11">級~</tspan><tspan x="79" y="0" class="st4 st10 st6">準１級</tspan><tspan x="0" y="13.9" class="st4 st10 st6">GTEC TEAP</tspan><tspan x="0" y="27.9" class="st4 st10 st6">TOEIC Bridge</tspan><tspan x="0" y="41.8" class="st4 st10 st6">TOEFL</tspan></text><text transform="rotate(90 24.484 227.068)"><tspan x="0" y="0" class="st4 st10 st6">英検 ３</tspan><tspan x="40.8" y="0" class="st4 st10 st11">級</tspan><tspan x="56" y="0" class="st4 st10 st6">~２級</tspan><tspan x="0" y="13.9" class="st4 st10 st6">GTEC</tspan><tspan x="0" y="27.9" class="st4 st10 st6">TOEIC Bridge</tspan><tspan x="0" y="41.8" class="st4 st10 st6">TOEFL</tspan></text><text transform="rotate(90 57.889 260.473)"><tspan x="0" y="0" class="st4 st10 st6">英検 </tspan><tspan x="28.4" y="0" class="st4 st10 st11">4</tspan><tspan x="39" y="0" class="st4 st10 st6">級～</tspan><tspan x="63.8" y="0" class="st4 st10 st11">準2</tspan><tspan x="89.5" y="0" class="st4 st10 st6">級</tspan><tspan x="0" y="13.9" class="st4 st10 st6">GTEC</tspan></text><text transform="rotate(90 91.456 294.04)"><tspan x="0" y="0" class="st4 st10 st6">英検 導入～</tspan><tspan x="65.6" y="0" class="st4 st10 st11">準2</tspan><tspan x="91.3" y="0" class="st4 st10 st6">級</tspan><tspan x="0" y="13.9" class="st4 st10 st6">GTEC</tspan></text><text transform="rotate(90 123.973 326.557)"><tspan x="0" y="0" class="st4 st10 st6">英検 導入</tspan><tspan x="53.2" y="0" class="st4 st10 st11">～3</tspan><tspan x="79" y="0" class="st4 st10 st6">級</tspan></text><text transform="rotate(90 157.378 359.961)"><tspan x="0" y="0" class="st4 st10 st6">英検 導入～</tspan><tspan x="65.6" y="0" class="st4 st10 st11">準2</tspan><tspan x="91.3" y="0" class="st4 st10 st6">級</tspan></text><text transform="rotate(90 190.782 393.366)"><tspan x="0" y="0" class="st4 st10 st11">準2級</tspan><tspan x="41" y="0" class="st4 st10 st6">~</tspan><tspan x="48.7" y="0" class="st4 st10 st11">1</tspan><tspan x="59.3" y="0" class="st4 st10 st6">級</tspan></text><text class="st4 st10 st6" transform="rotate(90 224.188 426.77)">TOEIC 500 ~990</text><text transform="rotate(90 257.755 460.338)"><tspan x="0" y="0" class="st4 st10 st6">TOEFL 40~120</tspan><tspan x="0" y="13.9" class="st4 st10 st6">IELTS 4~9</tspan></text><text class="st12 st4 st13 st6" transform="translate(44.564 29.727)">大学受験・高校生</text><text class="st12 st4 st13 st6" transform="translate(277.856 29.727)">中学生</text><text class="st12 st4 st13 st6" transform="translate(444.317 29.727)">小学生</text><text class="st12 st4 st13 st6" transform="translate(597.578 29.727)">高校生以外</text></svg>