<?xml version="1.0" encoding="utf-8"?>
<!-- Generator: Adobe Illustrator 26.1.0, SVG Export Plug-In . SVG Version: 6.00 Build 0)  -->
<svg version="1.1" id="レイヤー_1" xmlns="http://www.w3.org/2000/svg" xmlns:xlink="http://www.w3.org/1999/xlink" x="0px"
	 y="0px" viewBox="0 0 915.4 304.9" style="enable-background:new 0 0 915.4 304.9;" xml:space="preserve">
<style type="text/css">
	.st0{fill:#518CC7;stroke:#0B69B7;stroke-width:1.2932;stroke-miterlimit:10;}
	.st1{fill:#FFFFFF;}
	.st2{font-weight: bold;}
	.st3{font-size:12px;}
	.st4{fill:none;stroke:#000000;stroke-width:0.7319;stroke-miterlimit:10;}
	.st5{enable-background:new    ;}
	.st6{fill:#8B9FAB;stroke:#54798C;stroke-width:1.0529;stroke-miterlimit:10;}
	.st7{fill:none;stroke:#000000;stroke-width:0.7322;stroke-miterlimit:10;}
	.st8{fill:none;stroke:#000000;stroke-width:0.7317;stroke-miterlimit:10;}
	.st9{fill:#518CC7;stroke:#0B69B7;stroke-width:1.053;stroke-miterlimit:10;}
	.st10{fill:none;stroke:#000000;stroke-width:0.7314;stroke-miterlimit:10;}
	.st11{fill:#8B9FAB;stroke:#54798C;stroke-width:1.053;stroke-miterlimit:10;}
</style>
<g>
	<g>
		<path class="st0" d="M13.5,12h212.5v50.2H13.5V12z"/>
		<text transform="matrix(1 0 0 1 100.3665 41.6784)" class="st1 st2 st3">小学生</text>
	</g>
	<rect x="13.3" y="69.9" class="st4" width="70.7" height="61.7"/>
	<text transform="matrix(1 0 0 1 21.2215 88.4479)" class="st5"><tspan x="0" y="0" class="st2 st3">Kids</tspan><tspan x="0" y="14.4" class="st2 st3">小1,2,3</tspan></text>
	<rect x="13.3" y="138.3" class="st4" width="70.7" height="61.7"/>
	<text transform="matrix(1 0 0 1 21.5713 156.785)" class="st2 st3">小4,5,6</text>
	<text transform="matrix(1 0 0 1 93.5371 156.785)" class="st2 st3">英検 導入〜準2</text>
	<text transform="matrix(1 0 0 1 93.8853 87.7975)" class="st2 st3">英検 導入〜3級</text>
</g>
<g>
	<text transform="matrix(1 0 0 1 245.4233 88.4479)" class="st2 st3">中１</text>
	<g>
		<path class="st6" d="M238.7,11.6h212.8v50.9H238.7V11.6z"/>
		<text transform="matrix(1 0 0 1 325.2708 41.7146)" class="st1 st2 st3">中学生</text>
	</g>
	<rect x="238.5" y="70" class="st7" width="70.8" height="61.6"/>
	<rect x="238.5" y="138.3" class="st7" width="70.8" height="61.6"/>
	<text transform="matrix(1 0 0 1 246.1425 156.785)" class="st2 st3">中２</text>
	<text transform="matrix(1 0 0 1 318.8195 87.7972)" class="st5"><tspan x="0" y="0" class="st2 st3">英検 導入〜準2級</tspan><tspan x="0" y="14.4" class="st2 st3">GTEC</tspan></text>
	<text transform="matrix(1 0 0 1 319.4678 153.6445)" class="st5"><tspan x="0" y="0" class="st2 st3">英検 4級〜準2級</tspan><tspan x="0" y="14.4" class="st2 st3">GTEC</tspan></text>
	<rect x="238.5" y="206.6" class="st8" width="70.8" height="61.5"/>
	<text transform="matrix(1 0 0 1 245.4233 224.3246)" class="st5"><tspan x="0" y="0" class="st2 st3">中３</tspan><tspan x="0" y="14.4" class="st2 st3">高校受験</tspan></text>
	<text transform="matrix(1 0 0 1 320.1159 223.6744)" class="st5"><tspan x="0" y="0" class="st2 st3">英検 3級〜2級</tspan><tspan x="0" y="14.4" class="st2 st3">TOEIC Bridge</tspan><tspan x="0" y="28.8" class="st2 st3">GTEC, TOEFL</tspan></text>
</g>
<g>
	<g>
		<path class="st9" d="M464,11.6h212.9v50.9H464V11.6z"/>
		<text transform="matrix(1 0 0 1 518.4234 41.6295)" class="st1 st2 st3">高校生・大学受験</text>
	</g>
	<g>
		<text transform="matrix(1 0 0 1 471.2903 88.4483)" class="st2 st3">高１</text>
		<text transform="matrix(1 0 0 1 472.0095 156.785)" class="st2 st3">高２</text>
		<text transform="matrix(1 0 0 1 543.8891 87.797)" class="st5"><tspan x="0" y="0" class="st2 st3">英検 準2級〜準1級</tspan><tspan x="0" y="14.4" class="st2 st3">TOEIC Bridge</tspan><tspan x="0" y="28.8" class="st2 st3">GTEC, TEAP, TOEFL</tspan></text>
		<text transform="matrix(1 0 0 1 544.5373 152.6445)" class="st5"><tspan x="0" y="0" class="st2 st3">英検 2級〜準1級</tspan><tspan x="0" y="14.4" class="st2 st3">TOEIC Bridge</tspan><tspan x="0" y="28.8" class="st2 st3">TOEIC, GTEC, TEAP</tspan><tspan x="0" y="43.2" class="st2 st3">TOEFL, IELTS</tspan></text>
		<text transform="matrix(1 0 0 1 544.2493 221.2638)" class="st5"><tspan x="0" y="0" class="st2 st3">英検 2級〜1級</tspan><tspan x="0" y="14.4" class="st2 st3">TOEIC Bridge</tspan><tspan x="0" y="28.8" class="st2 st3">TOEIC, GTEC, TEAP</tspan><tspan x="0" y="43.2" class="st2 st3">TOEFL, IELTS</tspan></text>
		<g>
			<rect x="463.8" y="70" class="st4" width="70.8" height="61.6"/>
			<rect x="463.8" y="138.3" class="st4" width="70.8" height="61.6"/>
			<rect x="463.8" y="206.6" class="st10" width="70.8" height="61.5"/>
		</g>
		<text transform="matrix(1 0 0 1 471.2903 224.325)" class="st5"><tspan x="0" y="0" class="st2 st3">高３</tspan><tspan x="0" y="14.4" class="st2 st3">大学受験</tspan></text>
	</g>
</g>
<g>
	<g>
		<path class="st11" d="M689.3,11.6h212.9v50.9H689.3V11.6z"/>
		<text transform="matrix(1 0 0 1 762.8005 41.6661)" class="st1 st2 st3">高校生 以上</text>
	</g>
	<g>
		<text transform="matrix(1 0 0 1 696.6219 88.9472)" class="st2 st3">英検</text>
		<text transform="matrix(1 0 0 1 697.3411 157.2838)" class="st2 st3">TOEIC</text>
		<text transform="matrix(1 0 0 1 769.2208 88.2959)" class="st2 st3">英検 準2級〜1級</text>
		<text transform="matrix(1 0 0 1 769.8689 157.2841)" class="st2 st3">TOEIC 500〜990</text>
		<g>
			<rect x="689.1" y="70.4" class="st4" width="70.8" height="61.6"/>
			<rect x="689.1" y="138.8" class="st4" width="70.8" height="61.6"/>
			<rect x="689.1" y="207.1" class="st10" width="70.8" height="61.5"/>
		</g>
		<text transform="matrix(1 0 0 1 696.6219 224.8239)" class="st5"><tspan x="0" y="0" class="st2 st3">TOEFL</tspan><tspan x="0" y="14.4" class="st2 st3">IELTS</tspan></text>
		<text transform="matrix(1 0 0 1 769.5691 224.1734)" class="st5"><tspan x="0" y="0" class="st2 st3">TOEFL 40〜120</tspan><tspan x="0" y="14.4" class="st2 st3">IELTS 4〜9</tspan></text>
	</g>
</g>
</svg>
