<?xml version="1.0" encoding="UTF-8"?><svg id="a" xmlns="http://www.w3.org/2000/svg" viewBox="0 0 32 32"><g><rect x="2.126" y="2.126" width="27.748" height="27.748" rx="8.104" ry="8.104" style="fill:#f5f5f5;"/><path d="M21.77,4.252c3.296,0,5.978,2.682,5.978,5.978v11.539c0,3.296-2.682,5.978-5.978,5.978H10.23c-3.296,0-5.978-2.682-5.978-5.978V10.23c0-3.296,2.682-5.978,5.978-5.978h11.539m0-4.252H10.23C4.604,0,0,4.604,0,10.23v11.539c0,5.627,4.604,10.23,10.23,10.23h11.539c5.627,0,10.23-4.604,10.23-10.23V10.23c0-5.627-4.604-10.23-10.23-10.23h0Z" style="fill:#688096;"/></g><path d="M13.067,12.054c.052-.079,.121-.187,.206-.324s.157-.238,.216-.304c.059-.065,.114-.098,.167-.098,.104,0,.379,.212,.824,.637,.444,.425,.712,.742,.804,.951,.013,.066,.006,.131-.02,.196-.079,.144-.229,.216-.451,.216h-2.607v1.588c.902,.366,1.565,.797,1.99,1.294,.425,.497,.638,.987,.638,1.471,0,.327-.095,.602-.285,.823-.189,.223-.415,.333-.676,.333-.249,0-.497-.104-.745-.313-.052-.052-.079-.117-.079-.196-.026-.431-.118-.892-.274-1.382s-.347-.958-.568-1.402v4.274c.026,1.635,.078,3.131,.157,4.49,0,.079-.026,.145-.079,.196-.17,.17-.415,.323-.735,.461s-.689,.206-1.108,.206c-.183,0-.323-.039-.421-.118-.098-.078-.147-.17-.147-.274,.091-1.32,.15-2.771,.176-4.353v-2.373c-.758,1.111-1.686,2.164-2.784,3.157-.092,.065-.17,.065-.235,0l-.02-.02c-.065-.065-.072-.138-.02-.216,.667-.993,1.242-2.157,1.726-3.49,.483-1.333,.862-2.719,1.137-4.157h-.843c-.445,.013-.882,.091-1.314,.235h-.059c-.052,0-.098-.033-.137-.098l-.333-.627-.02-.079c0-.091,.052-.124,.157-.098,.588,.066,1.189,.105,1.804,.118h.941v-2.843c-.98,.144-1.889,.255-2.726,.333-.078,0-.13-.039-.157-.118v-.059c0-.052,.033-.091,.098-.118,.954-.379,1.948-.863,2.98-1.451,1.032-.588,1.856-1.137,2.471-1.647,.091-.065,.169-.065,.235,0l2.196,1.961c.039,.039,.062,.082,.069,.127,.006,.046-.017,.075-.069,.088-.104,.052-.242,.078-.412,.078-.196,0-.425-.045-.687-.137-.562,.183-1.176,.353-1.843,.51v3.274h.431l.431-.725Zm7.589,2.853c.051-.098,.111-.212,.176-.343,.287-.562,.557-1.187,.805-1.873,.248-.687,.432-1.291,.549-1.814,.025-.118,.098-.144,.215-.078,1.582,.862,2.373,1.392,2.373,1.588,0,.066-.066,.111-.195,.137l-.393,.079c-1.164,1.281-2.348,2.333-3.549,3.157,.352,1.582,.873,2.899,1.559,3.951,.686,1.053,1.598,1.912,2.734,2.578,.08,.039,.119,.092,.119,.157-.014,.065-.061,.117-.139,.157-.471,.144-.861,.425-1.176,.843s-.543,.928-.686,1.529c-.014,.065-.037,.104-.07,.118-.031,.013-.074,0-.127-.04-.967-.915-1.686-2.235-2.156-3.961-.471-1.725-.791-3.954-.961-6.686-.131,1.739-.406,3.249-.824,4.53s-1.107,2.441-2.068,3.48c-.961,1.039-2.278,1.944-3.951,2.716-.105,.039-.176,.02-.216-.06l-.039-.059c-.039-.092-.026-.163,.039-.216,1.451-1.02,2.546-2.166,3.285-3.44,.738-1.275,1.226-2.67,1.46-4.187,.236-1.517,.354-3.386,.354-5.608,0-.732-.02-1.546-.059-2.441-.039-.895-.098-1.591-.176-2.088,0-.13,.059-.183,.176-.157,1.777,.17,2.666,.34,2.666,.51,0,.052-.053,.111-.156,.177l-.334,.235v.451c.078,2.784,.287,5.092,.629,6.922,.039-.079,.084-.167,.137-.265Zm-4.53-3.794c.091,.026,.144,.072,.157,.137,.261,.771,.392,1.536,.392,2.294,0,.536-.068,1.006-.206,1.412s-.324,.732-.559,.98c-.249,.249-.542,.373-.882,.373-.209,0-.405-.052-.588-.157-.183-.104-.32-.248-.412-.431-.065-.17-.098-.327-.098-.471,0-.235,.065-.454,.196-.657,.13-.203,.307-.382,.529-.539,.314-.275,.608-.673,.882-1.196,.274-.522,.425-1.052,.451-1.588,0-.104,.045-.157,.137-.157Z"/></svg>